<svg xmlns="http://www.w3.org/2000/svg" version="1.0" preserveAspectRatio="xMidYMid meet" viewBox="0.3 0.2 399.4 399.6">

<g transform="translate(0.000000,400.000000) scale(0.100000,-0.100000)" fill="#000000" stroke="none">
<path d="M1812 3989 c-595 -57 -1142 -385 -1473 -883 -448 -674 -448 -1538 0 -2212 343 -516 890 -834 1524 -886 695 -57 1403 292 1798 886 448 674 448 1538 0 2212 -405 610 -1124 953 -1849 883z m250 -407 l56 -78 104 -13 c56 -7 130 -21 163 -32 33 -10 85 -26 115 -36 50 -15 280 -125 305 -145 5 -4 55 -41 110 -82 55 -41 128 -103 162 -138 222 -229 381 -556 418 -863 9 -71 12 -75 90 -128 58 -39 75 -54 75 -69 0 -3 -33 -30 -72 -59 -40 -28 -75 -53 -77 -55 -2 -2 -10 -47 -17 -101 -44 -310 -212 -641 -436 -860 -221 -215 -550 -379 -836 -414 l-102 -13 -36 -55 c-39 -60 -73 -101 -84 -101 -4 0 -32 35 -62 78 l-56 78 -88 11 c-115 16 -139 20 -199 39 -196 63 -358 143 -496 246 -126 94 -206 173 -295 293 -41 55 -78 105 -82 110 -20 25 -112 217 -134 280 -56 154 -88 290 -88 371 0 27 -8 36 -57 69 -61 39 -103 74 -103 85 0 3 35 32 79 63 l78 58 7 62 c31 303 194 643 419 875 34 35 107 97 162 138 55 41 105 78 110 82 6 4 55 31 110 59 169 85 322 135 473 154 l102 13 36 55 c39 60 73 101 84 101 4 0 32 -35 62 -78z"/>
<path d="M1768 3245 c-4 -4 -44 -15 -90 -25 -45 -10 -101 -28 -123 -39 -21 -12 -45 -21 -53 -21 -8 0 -26 -8 -40 -19 -15 -10 -44 -24 -64 -30 -21 -7 -38 -17 -38 -22 0 -6 -15 -16 -32 -24 -52 -21 -110 -67 -205 -162 -113 -113 -158 -166 -183 -220 -11 -24 -24 -43 -29 -43 -5 0 -15 -17 -22 -37 -6 -21 -20 -50 -30 -65 -11 -14 -19 -32 -19 -40 0 -8 -9 -32 -21 -53 -11 -22 -30 -78 -42 -125 -19 -75 -21 -112 -21 -320 0 -208 2 -245 21 -320 12 -47 31 -103 42 -125 12 -21 21 -45 21 -53 0 -8 8 -26 19 -40 10 -15 24 -44 30 -64 7 -21 17 -38 22 -38 5 0 18 -19 29 -43 46 -98 279 -331 377 -377 24 -11 43 -24 43 -29 0 -5 17 -15 38 -22 20 -6 49 -20 64 -30 14 -11 32 -19 40 -19 8 0 32 -9 53 -21 22 -11 78 -30 125 -42 75 -19 112 -21 320 -21 208 0 245 2 320 21 47 12 103 31 125 42 21 12 45 21 53 21 8 0 26 8 40 19 15 10 44 24 65 30 20 7 37 17 37 22 0 6 15 16 33 24 53 22 115 72 217 175 103 102 153 164 175 218 8 17 18 32 24 32 5 0 15 17 22 38 6 20 20 49 30 64 11 14 19 32 19 40 0 8 9 32 21 53 11 22 30 78 42 125 19 75 21 112 21 320 0 208 -2 245 -21 320 -12 47 -31 103 -42 125 -12 21 -21 45 -21 53 0 8 -8 26 -19 40 -10 15 -24 44 -30 65 -7 20 -17 37 -22 37 -5 0 -18 19 -29 43 -25 54 -70 107 -183 220 -95 95 -153 141 -204 162 -18 8 -33 18 -33 24 0 5 -17 15 -37 22 -21 6 -50 20 -65 30 -14 11 -32 19 -40 19 -8 0 -32 9 -53 21 -92 47 -194 63 -440 66 -127 2 -234 1 -237 -2z m254 -45 c10 -11 36 -50 60 -87 23 -38 45 -70 49 -73 3 -3 18 -25 34 -49 l27 -44 -50 -46 c-35 -33 -51 -56 -55 -81 -10 -59 13 -318 39 -438 3 -14 20 -29 48 -43 53 -24 123 -97 155 -159 43 -83 48 -95 65 -165 51 -211 80 -266 158 -306 42 -22 45 -22 200 -3 l47 6 25 -84 c14 -45 46 -159 71 -252 38 -139 44 -171 33 -182 -11 -10 -48 -8 -203 11 -104 14 -220 29 -257 36 l-68 11 0 41 c0 23 -3 73 -7 112 -6 66 -9 72 -53 116 -56 56 -84 65 -240 79 -112 10 -185 25 -204 42 -6 4 -18 8 -27 8 -53 0 -173 105 -215 188 -27 53 -29 65 -29 172 0 112 1 117 33 172 41 72 87 119 154 156 46 26 52 34 63 78 26 108 35 185 38 305 l2 126 -54 50 -54 51 33 54 c19 29 37 55 41 58 3 3 26 37 50 75 57 92 64 97 91 65z"/>
<path d="M1920 2254 c-73 -28 -130 -77 -161 -138 -20 -41 -19 -171 3 -216 19 -40 79 -99 122 -121 18 -8 59 -14 106 -14 47 0 88 6 106 14 43 22 103 81 122 121 23 48 23 172 0 220 -18 37 -75 95 -118 119 -26 15 -153 25 -180 15z m138 -139 c61 -51 66 -132 13 -186 -54 -53 -135 -48 -186 13 -19 23 -25 41 -25 80 0 44 4 54 34 84 30 30 40 34 84 34 39 0 57 -6 80 -25z"/>
</g>
</svg>