<svg xmlns="http://www.w3.org/2000/svg" version="1.0" preserveAspectRatio="xMidYMid meet" viewBox="41.08 34.09 173.64 187.75">

<g transform="translate(0.000000,256.000000) scale(0.100000,-0.100000)" fill="#000000" stroke="none">
<path d="M1252 2208 c-5 -7 -78 -149 -160 -314 l-151 -302 -78 -43 c-115 -64 -205 -112 -326 -174 -113 -58 -143 -89 -118 -119 7 -9 65 -43 129 -78 65 -34 149 -79 187 -100 39 -21 99 -53 134 -71 l63 -32 150 -302 c82 -165 158 -309 168 -318 10 -9 27 -15 37 -13 13 2 65 97 175 315 l157 311 163 88 c309 165 357 194 363 215 5 13 1 27 -8 36 -8 8 -126 74 -263 147 l-249 133 -152 304 c-84 167 -160 310 -170 316 -21 16 -38 16 -51 1z m188 -314 c80 -160 152 -300 160 -311 8 -11 105 -69 215 -128 221 -118 305 -166 305 -175 0 -7 -55 -40 -67 -40 -4 0 3 9 17 20 l25 20 -35 1 c-33 1 -34 2 -7 8 24 5 1 19 -184 111 -117 58 -231 117 -253 131 -44 27 -68 67 -216 354 -91 175 -109 205 -124 205 -13 0 -18 -9 -105 -189 -33 -68 -57 -129 -54 -134 4 -6 1 -7 -7 -2 -10 6 -12 3 -8 -13 4 -12 2 -20 -2 -17 -5 3 -11 1 -15 -5 -3 -5 -2 -10 4 -10 6 0 6 -11 0 -32 -5 -18 -9 -50 -9 -71 0 -25 -4 -36 -11 -31 -13 8 -3 -31 16 -61 12 -20 109 -129 153 -173 l23 -23 -7 28 c-4 16 -36 89 -71 163 -73 154 -74 163 -19 264 39 73 53 79 61 29 4 -21 13 -58 20 -83 10 -32 12 -35 8 -10 -8 40 -7 58 4 120 8 43 9 40 16 -49 4 -52 7 -169 7 -260 0 -91 3 -183 6 -203 l7 -38 96 -2 c53 -1 76 -3 51 -5 -25 -1 -69 -5 -97 -9 l-53 -5 0 -123 c0 -138 -12 -548 -16 -544 -1 2 -7 57 -14 123 -6 66 -22 197 -35 291 -14 93 -25 173 -25 177 0 4 16 25 36 47 20 22 34 44 32 49 -3 10 -274 251 -282 251 -3 0 -37 -21 -77 -47 -56 -38 -67 -49 -50 -51 17 -3 21 -10 21 -38 0 -30 -3 -34 -27 -34 -38 0 -73 -10 -73 -21 0 -5 19 -9 43 -9 31 0 38 3 27 10 -12 8 -10 10 9 10 16 0 21 -4 18 -14 -7 -18 38 -26 231 -40 23 -2 45 -6 48 -8 10 -11 -151 -18 -383 -19 -134 0 -243 -4 -243 -8 0 -5 12 -15 28 -22 136 -68 301 -163 295 -172 -3 -6 -1 -7 5 -3 14 9 75 -22 67 -34 -3 -5 0 -12 6 -16 8 -4 9 -3 5 4 -9 15 -3 15 27 1 17 -8 41 -48 86 -142 34 -72 59 -137 56 -144 -2 -8 0 -11 5 -8 12 8 112 -193 103 -208 -3 -7 -2 -8 3 -4 4 4 20 -16 35 -45 l27 -53 17 40 c15 35 18 38 25 20 5 -11 9 -15 9 -8 1 6 4 19 8 29 4 12 3 15 -5 10 -7 -4 -12 -2 -12 4 0 6 6 13 14 16 8 3 12 12 9 20 -3 8 0 14 7 14 6 0 8 5 5 10 -3 6 -2 10 3 10 5 0 9 6 9 13 1 20 180 382 196 395 8 7 23 10 33 6 14 -4 15 -3 6 3 -9 7 41 37 175 104 103 51 206 102 228 111 65 29 12 -8 -69 -48 -38 -18 -74 -38 -80 -42 -6 -5 -60 -35 -121 -67 -60 -31 -123 -71 -140 -89 -16 -17 -32 -31 -36 -31 -4 0 -11 -4 -16 -9 -5 -5 -3 -6 5 -2 20 12 14 -9 -25 -88 -20 -41 -41 -72 -46 -69 -6 3 -7 2 -4 -4 9 -14 -67 -165 -78 -155 -4 4 -6 0 -3 -8 5 -15 -94 -224 -111 -235 -13 -7 -44 52 -35 67 4 6 3 8 -3 5 -12 -8 -76 121 -67 135 4 6 3 8 -2 5 -13 -8 -176 321 -168 336 4 7 3 9 -1 4 -5 -4 -18 10 -29 30 -16 29 -40 48 -101 80 -44 23 -79 47 -77 53 1 6 -2 9 -7 5 -12 -7 -91 32 -91 45 0 5 -7 7 -15 4 -10 -4 -15 0 -15 11 0 9 -4 14 -9 11 -14 -9 -42 5 -34 17 3 6 1 7 -6 3 -6 -4 -33 5 -59 21 -26 15 -64 36 -85 45 -22 10 -37 23 -35 30 3 7 119 74 259 149 l254 136 152 299 c83 164 154 305 157 312 3 8 12 12 19 10 6 -2 77 -135 157 -294z m-260 -38 c0 -3 -4 -8 -10 -11 -5 -3 -10 -1 -10 4 0 6 5 11 10 11 6 0 10 -2 10 -4z m-177 -498 c-6 -11 -43 -10 -43 1 0 5 11 8 24 7 13 0 22 -4 19 -8z m62 -28 c3 -5 -3 -10 -15 -10 -12 0 -18 5 -15 10 3 6 10 10 15 10 5 0 12 -4 15 -10z m125 -189 c0 -16 3 -36 6 -45 7 -19 -26 -22 -44 -4 -17 17 -15 39 3 32 11 -5 15 1 15 20 0 14 5 26 10 26 6 0 10 -13 10 -29z m-60 -51 c0 -5 -5 -10 -11 -10 -5 0 -7 5 -4 10 3 6 8 10 11 10 2 0 4 -4 4 -10z"/>
<path d="M1066 1685 c-3 -9 -6 -22 -5 -28 0 -7 5 -1 10 12 5 13 8 26 5 28 -2 2 -6 -3 -10 -12z"/>
<path d="M1062 1620 c0 -14 2 -19 5 -12 2 6 2 18 0 25 -3 6 -5 1 -5 -13z"/>
<path d="M728 1383 c6 -2 18 -2 25 0 6 3 1 5 -13 5 -14 0 -19 -2 -12 -5z"/>
<path d="M708 1353 c12 -2 30 -2 40 0 9 3 -1 5 -23 4 -22 0 -30 -2 -17 -4z"/>
<path d="M960 1006 c0 -2 8 -10 18 -17 15 -13 16 -12 3 4 -13 16 -21 21 -21 13z"/>
<path d="M1066 795 c4 -8 8 -15 10 -15 2 0 4 7 4 15 0 8 -4 15 -10 15 -5 0 -7 -7 -4 -15z"/>
</g>
</svg>