<?xml version="1.0" standalone="no"?>
<!DOCTYPE svg PUBLIC "-//W3C//DTD SVG 20010904//EN"
 "http://www.w3.org/TR/2001/REC-SVG-20010904/DTD/svg10.dtd">
<svg version="1.0" xmlns="http://www.w3.org/2000/svg"
 width="189.000000pt" height="162.000000pt" viewBox="0 0 189.000000 162.000000"
 preserveAspectRatio="xMidYMid meet">

<g transform="translate(0.000000,162.000000) scale(0.100000,-0.100000)"
fill="#000000" stroke="none">
<path d="M593 1460 c-119 -22 -234 -88 -321 -186 -84 -94 -151 -257 -133 -322
4 -15 6 -39 4 -55 -4 -32 26 -105 63 -155 26 -33 26 -33 41 -12 20 28 57 23
61 -9 2 -13 -9 -43 -25 -70 l-30 -47 81 -152 c45 -83 84 -152 89 -152 6 0 65
36 103 65 19 14 49 -6 49 -33 0 -11 8 -29 16 -39 28 -32 29 -40 14 -84 -18
-50 -64 -102 -115 -130 l-35 -20 45 7 c109 14 263 64 397 126 l51 24 -39 25
c-21 13 -39 32 -39 41 0 15 -4 16 -25 6 -32 -14 -32 -14 -95 102 -28 52 -55
99 -59 103 -5 5 -21 1 -35 -8 -15 -10 -29 -16 -31 -13 -2 2 2 22 10 43 22 62
19 69 -19 40 -36 -27 -76 -40 -76 -24 0 5 15 30 34 56 61 87 61 83 11 158 -25
37 -45 73 -45 80 0 7 -46 56 -102 109 l-102 95 -13 -30 c-6 -16 -19 -29 -28
-29 -11 0 -15 -6 -12 -17 13 -46 17 -93 9 -93 -14 0 -20 20 -28 89 -6 60 0 73
23 50 9 -9 14 -3 20 22 5 19 15 34 21 34 7 0 54 -39 105 -86 l93 -87 -1 87 c0
83 2 92 43 175 51 103 135 197 230 258 l64 42 -28 8 c-47 14 -185 18 -241 8z"/>
<path d="M975 1453 c-171 -36 -315 -156 -399 -333 -29 -60 -31 -72 -29 -164 2
-106 10 -137 56 -205 l30 -44 23 28 c50 63 77 -19 29 -89 -14 -20 -25 -39 -25
-42 0 -8 151 -288 161 -298 5 -6 31 6 63 27 67 44 84 46 92 9 4 -15 15 -42 26
-60 34 -56 -5 -140 -87 -188 -25 -14 -44 -28 -42 -30 2 -2 38 2 80 10 88 17
229 64 330 110 l70 31 -40 27 c-35 23 -39 30 -35 57 5 36 11 38 43 13 47 -36
240 -100 271 -90 6 2 -8 18 -33 35 -68 47 -123 127 -147 216 -12 43 -7 45 49
16 49 -25 59 -19 35 21 -21 37 -13 38 68 9 77 -27 156 -36 156 -19 0 7 -44 55
-97 106 -105 102 -112 125 -34 104 23 -6 49 -14 57 -17 10 -3 14 2 14 19 0 32
42 71 107 98 58 25 60 35 10 44 -53 10 -123 60 -151 108 -14 25 -30 72 -35
108 -28 193 -174 342 -376 385 -87 18 -150 18 -240 -2z m-114 -505 c204 -187
225 -227 174 -317 -26 -44 -28 -64 -5 -36 24 28 39 17 42 -31 l3 -46 113 80
c62 45 119 88 128 96 16 17 42 11 88 -20 32 -20 54 -9 31 16 -9 9 -19 40 -24
66 -9 59 -51 140 -103 199 -41 46 -45 55 -25 55 29 -1 133 -154 143 -209 3
-20 10 -51 16 -69 9 -29 14 -33 34 -29 37 7 37 -6 -2 -43 l-34 -34 -54 29 -54
29 -40 -36 c-46 -41 -246 -178 -261 -178 -6 0 -4 15 5 35 7 19 14 44 14 56 l0
22 -22 -20 c-71 -65 -107 -48 -52 23 46 60 67 110 60 139 -8 30 -277 295 -300
295 -3 0 -6 -6 -6 -14 0 -8 -9 -21 -20 -29 -18 -13 -20 -21 -14 -73 9 -77 -10
-62 -25 20 -15 84 -15 89 8 76 17 -9 21 -5 31 25 6 19 15 35 20 35 5 0 64 -50
131 -112z"/>
</g>
</svg>
