<?xml version="1.0" standalone="no"?>
<!DOCTYPE svg PUBLIC "-//W3C//DTD SVG 20010904//EN"
 "http://www.w3.org/TR/2001/REC-SVG-20010904/DTD/svg10.dtd">
<svg version="1.0" xmlns="http://www.w3.org/2000/svg"
 width="341.000000pt" height="341.000000pt" viewBox="0 0 341.000000 341.000000"
 preserveAspectRatio="xMidYMid meet">

<g transform="translate(0.000000,341.000000) scale(0.100000,-0.100000)"
fill="#000000" stroke="none">
<path d="M1330 3365 c14 -15 149 -126 300 -247 151 -121 295 -237 320 -260
l45 -40 -50 37 c-83 60 -109 68 -230 72 -147 3 -273 -20 -450 -85 -222 -81
-387 -192 -510 -342 -107 -132 -159 -259 -175 -430 -12 -129 -19 -151 -79
-255 -51 -89 -213 -261 -269 -286 -44 -19 -37 -38 28 -72 55 -28 95 -31 144
-11 22 8 22 13 -11 -126 -13 -55 -18 -113 -17 -220 1 -187 19 -245 116 -375
l22 -30 -25 21 -24 22 -79 -27 c-44 -14 -81 -31 -83 -38 -5 -13 95 -86 187
-136 108 -60 212 -96 321 -113 57 -9 108 -20 113 -25 20 -19 -273 -129 -381
-144 l-53 -7 53 -44 c64 -54 231 -139 312 -159 79 -20 246 -20 316 1 82 24
237 105 352 183 118 81 320 257 314 274 -2 7 -13 13 -25 15 -12 2 -22 5 -22 8
0 2 20 34 44 72 57 90 132 226 120 220 -5 -2 -36 -16 -69 -32 -103 -47 -139
-65 -177 -88 -20 -13 -40 -20 -43 -16 -4 4 -3 53 3 110 l11 103 -5 -103 c-3
-81 -1 -102 8 -96 7 4 35 23 62 41 26 18 53 33 60 33 37 0 91 26 136 67 28 25
53 43 56 40 7 -6 -94 -199 -142 -272 -28 -42 -34 -59 -26 -67 17 -17 225 -23
292 -9 30 7 77 16 103 21 68 13 182 71 253 129 129 105 194 253 202 457 l4
122 102 4 c168 8 281 69 390 211 58 76 69 107 39 107 -10 1 -67 7 -128 14 -82
9 -124 20 -165 41 -135 67 -230 172 -250 273 -17 85 -56 218 -85 296 -57 151
-174 354 -240 416 -14 13 -25 28 -25 33 0 5 87 -36 193 -91 248 -129 409 -204
400 -187 -5 7 -94 103 -199 212 -235 245 -307 323 -301 329 2 3 47 -7 100 -21
89 -24 137 -31 137 -21 0 3 -30 65 -66 138 l-66 133 6 93 c6 111 9 109 -114
52 -100 -47 -136 -49 -310 -21 -63 11 -121 16 -127 12 -9 -4 18 -39 78 -104
50 -54 89 -101 85 -104 -6 -7 -242 85 -562 218 -117 48 -225 91 -240 95 l-29
7 25 -28z m570 -564 c-32 -6 -35 -9 -38 -45 -4 -59 -12 -57 -12 2 l0 52 43 -1
42 -2 -35 -6z m363 -263 c-17 -19 -363 -199 -380 -198 -5 1 71 41 167 90 168
85 218 121 221 158 1 10 4 7 6 -6 3 -14 -3 -32 -14 -44z m-916 -76 c-9 -2 -18
-15 -20 -30 -2 -15 -5 -2 -5 28 l-1 55 20 -25 c18 -21 19 -25 6 -28z m500
-104 c-2 -13 -4 -5 -4 17 -1 22 1 32 4 23 2 -10 2 -28 0 -40z m-335 -93 c16
-14 25 -25 20 -25 -14 0 -127 111 -142 140 -7 14 10 -1 39 -32 29 -32 66 -69
83 -83z m-243 -81 c-19 -31 -58 -82 -87 -114 l-53 -59 38 -4 c35 -3 34 -4 -9
-5 -27 -1 -48 1 -48 4 0 4 29 37 64 74 35 37 76 91 91 119 16 28 30 49 33 46
3 -2 -10 -30 -29 -61z m498 -20 c-3 -3 -12 -4 -19 -1 -8 3 -5 6 6 6 11 1 17
-2 13 -5z m59 -13 c-6 -9 -46 -22 -46 -15 0 3 10 9 23 14 29 11 29 11 23 1z
m-66 -25 c0 -2 -7 -6 -15 -10 -8 -3 -15 -1 -15 4 0 6 7 10 15 10 8 0 15 -2 15
-4z m-65 -35 c-6 -4 -30 -25 -55 -47 l-45 -38 45 47 c24 26 49 47 54 47 6 0 6
-3 1 -9z m-387 -110 c35 -18 92 -73 122 -116 7 -11 -6 2 -30 28 -23 26 -65 61
-94 77 -57 33 -56 41 2 11z m-145 -358 c45 -32 83 -67 89 -82 18 -47 11 -212
-12 -282 -28 -83 -94 -201 -144 -260 -23 -25 -61 -70 -85 -98 -45 -55 -135
-131 -153 -131 -6 0 18 22 53 48 99 76 98 70 26 134 -60 53 -64 59 -76 121
-15 74 -5 121 30 153 55 49 61 101 22 189 -25 57 -26 71 -30 259 l-5 199 104
-97 c56 -54 138 -123 181 -153z m386 97 c0 -45 -2 -60 -9 -50 -5 8 -9 49 -9
90 1 93 17 58 18 -40z m-50 35 c0 -5 -6 -1 -14 9 -8 11 -15 24 -15 30 0 5 7 1
15 -10 8 -10 14 -23 14 -29z m201 -692 c0 -31 -3 -43 -9 -34 -6 10 -20 -5 -49
-56 -52 -89 -119 -163 -196 -217 -88 -62 -135 -78 -246 -81 -52 -2 -79 -1 -60
1 188 22 250 43 339 119 80 69 128 131 174 227 23 48 43 88 45 88 1 0 2 -21 2
-47z m-965 -63 c-3 -5 -20 -19 -38 -30 -32 -22 -32 -22 3 9 37 32 45 37 35 21z
m952 -72 c-3 -7 -5 -2 -5 12 0 14 2 19 5 13 2 -7 2 -19 0 -25z m-851 -188 c5
-5 34 -19 64 -30 40 -14 45 -18 20 -14 -47 9 -110 34 -110 45 0 12 14 11 26
-1z m-166 -20 c6 -11 8 -20 6 -20 -3 0 -10 9 -16 20 -6 11 -8 20 -6 20 3 0 10
-9 16 -20z m-34 -96 c18 -14 18 -14 -6 -3 -31 14 -36 19 -24 19 6 0 19 -7 30
-16z m94 -25 c0 -5 -4 -9 -10 -9 -5 0 -10 7 -10 16 0 8 5 12 10 9 6 -3 10 -10
10 -16z"/>
<path d="M1125 1364 c-27 -7 -67 -16 -87 -19 -40 -6 -54 -22 -59 -70 -4 -28
-1 -30 29 -33 44 -4 131 38 171 84 50 57 41 64 -54 38z"/>
</g>
</svg>
